<svg width="50" height="50" viewBox="0 0 50 50" fill="none" xmlns="http://www.w3.org/2000/svg">
<g id="logo">
<path id="Vector" d="M11.6556 23.3183H6.41699L22.1786 7.55792C22.5366 7.19968 22.9617 6.91548 23.4296 6.72155C23.8976 6.52763 24.399 6.42779 24.9056 6.42773H30.1428L14.3826 22.1893C13.6588 22.9119 12.6781 23.3179 11.6556 23.3183Z" fill="#F5F5F5"/>
<path id="Vector_2" d="M8.33232 43.4992H3.09375L39.0362 7.55792C39.3942 7.19968 39.8193 6.91548 40.2872 6.72155C40.7552 6.52763 41.2566 6.42779 41.7632 6.42773H47.0005L31.2402 22.1893C30.5164 22.9119 9.35489 43.4987 8.33232 43.4992Z" fill="#F5F5F5"/>
<path id="Vector_3" d="M36.7731 26.6172H42.0117L26.2501 42.3776C25.8921 42.7359 25.467 43.0201 24.9991 43.214C24.5311 43.4079 24.0297 43.5078 23.5231 43.5078H18.2859L34.0461 27.7462C34.7699 27.0237 35.7506 26.6177 36.7731 26.6172Z" fill="#F5F5F5"/>
<path id="Vector_4" d="M36.6893 27.2984H40.2852L25.5978 41.964C25.3521 42.2094 25.0603 42.4041 24.7392 42.537C24.4179 42.6698 24.0737 42.7382 23.726 42.7383H20.1311L34.8175 28.0719C35.3143 27.5769 35.9874 27.2987 36.6893 27.2984Z" fill="#F5F5F5"/>
<path id="Vector_5" d="M24.7011 7.14218H28.2969L13.6096 21.8078C13.3638 22.0532 13.072 22.2479 12.7509 22.3807C12.4296 22.5136 12.0854 22.582 11.7377 22.582H8.14279L22.8292 7.91564C23.326 7.42062 23.9992 7.14248 24.7011 7.14218Z" fill="#F5F5F5"/>
</g>
</svg>
