<svg xmlns="http://www.w3.org/2000/svg" width="25" height="24" viewBox="0 0 25 24" fill="none">
<path class="socialIcon" fill-rule="evenodd" clip-rule="evenodd" d="M20.6006 4.42997C20.858 4.32596 21.1398 4.29008 21.4165 4.32608C21.6933 4.36208 21.9549 4.46863 22.1742 4.63465C22.3935 4.80067 22.5625 5.02008 22.6635 5.27005C22.7645 5.52002 22.7938 5.79141 22.7485 6.05597L20.386 19.813C20.1568 21.14 18.6402 21.901 17.3725 21.24C16.3121 20.687 14.7371 19.835 13.3204 18.946C12.6121 18.501 10.4423 17.076 10.7089 16.062C10.9381 15.195 14.5839 11.937 16.6673 9.99997C17.485 9.23897 17.1121 8.79997 16.1464 9.49997C13.7485 11.238 9.89852 13.881 8.6256 14.625C7.50268 15.281 6.91727 15.393 6.21727 15.281C4.94018 15.077 3.75581 14.761 2.78914 14.376C1.48289 13.856 1.54643 12.132 2.7881 11.63L20.6006 4.42997Z" fill="#F5F5F5" fill-opacity="0.5"/>
</svg>
