<svg width="24" height="24" viewBox="0 0 24 24" fill="none" xmlns="http://www.w3.org/2000/svg">
<g id="Forum">
<path id="Vector" d="M6 19.2C5.66 19.2 5.3752 19.0848 5.1456 18.8544C4.916 18.624 4.8008 18.3392 4.8 18V15.6H20.4V4.8H22.8C23.14 4.8 23.4252 4.9152 23.6556 5.1456C23.886 5.376 24.0008 5.6608 24 6V24L19.2 19.2H6ZM0 18V1.2C0 0.86 0.1152 0.5752 0.3456 0.3456C0.576 0.116 0.8608 0.0008 1.2 0H16.8C17.14 0 17.4252 0.1152 17.6556 0.3456C17.886 0.576 18.0008 0.8608 18 1.2V12C18 12.34 17.8848 12.6252 17.6544 12.8556C17.424 13.086 17.1392 13.2008 16.8 13.2H4.8L0 18Z" fill="#F5F5F5" fill-opacity="0.5"/>
</g>
</svg>
